<svg data-v-423bf9ae="" xmlns="http://www.w3.org/2000/svg" viewBox="0 0 316.4113634975807 60" class="font"><!----><!----><!----><g data-v-423bf9ae="" id="66dc8a61-acbf-4489-9dce-1fa191f75e28" fill="black" transform="matrix(5.847557936213539,0,0,5.847557936213539,-2.455973484679731,-23.27328165133752)"><path d="M5.43 14.20C8.29 14.20 9.38 12.56 9.53 12.15C9.58 12.04 9.58 11.94 9.58 11.84L9.58 10.26C9.58 9.56 9.93 9.81 9.93 9.52C9.93 9.28 9.70 9.28 9.52 9.28L8.11 9.28C7.83 9.28 7.67 9.30 7.67 9.53C7.67 9.83 8.05 9.55 8.05 10.36L8.05 11.34C8.05 11.52 8.04 11.56 7.98 11.68C7.73 12.17 6.73 12.84 5.45 12.84C3.67 12.84 2.04 11.47 2.04 9.11C2.04 6.79 3.68 5.40 5.43 5.40C6.92 5.40 7.46 5.74 8.06 6.15C8.68 6.57 8.44 6.80 8.62 6.93C8.79 7.06 8.95 6.89 9.09 6.66L9.70 5.74C9.80 5.59 9.95 5.35 9.79 5.24C9.53 5.07 9.44 5.36 8.92 5.05C8.71 4.93 7.60 3.99 5.43 3.99C2.31 3.99 0.42 6.26 0.42 9.11C0.42 11.79 2.20 14.20 5.43 14.20ZM11.98 14L13.62 14C13.99 14 14.14 14.03 14.14 13.80C14.14 13.41 13.55 13.68 13.55 12.80L13.55 8.40C13.55 8.08 13.72 8.01 13.97 8.22L18.87 12.38C19.05 12.56 19.17 12.77 19.17 12.92L19.17 13.66C19.17 13.85 19.24 14 19.43 14L20.75 14C20.93 14 21.18 14 21.18 13.76C21.18 13.40 20.73 13.48 20.73 12.94L20.73 5.54C20.73 4.56 21.24 4.82 21.24 4.47C21.24 4.23 20.96 4.20 20.44 4.20L19.49 4.20C18.89 4.20 18.66 4.20 18.66 4.44C18.66 4.80 19.17 4.52 19.17 5.63L19.17 10.15C19.17 10.47 19.00 10.51 18.82 10.35L13.82 6.05C13.64 5.87 13.54 5.80 13.54 5.54L13.54 4.56C13.54 4.31 13.40 4.20 13.13 4.20L12.14 4.20C11.69 4.20 11.51 4.21 11.51 4.41C11.51 4.72 11.98 4.55 12.00 5.40L12.00 12.77C12.03 13.62 11.47 13.43 11.47 13.80C11.47 14 11.70 14 11.98 14ZM22.22 9.16C22.22 12.52 24.67 14.20 27.15 14.24C29.69 14.28 32.27 12.59 32.27 9.16C32.27 5.71 29.81 4.02 27.31 3.99C24.78 3.98 22.22 5.71 22.22 9.16ZM23.90 9.16C23.90 6.69 25.61 5.47 27.30 5.49C28.97 5.50 30.63 6.72 30.63 9.16C30.63 11.58 28.91 12.78 27.20 12.75C25.54 12.73 23.90 11.52 23.90 9.16ZM37.23 14.17C39.41 14.17 41.13 13.30 41.13 11.19C41.13 7.06 34.72 9.09 34.72 6.80C34.72 5.68 35.90 5.45 37.23 5.45C38.50 5.45 39.00 5.82 39.10 5.88C39.77 6.26 39.45 6.61 39.68 6.72C39.90 6.83 39.98 6.68 40.14 6.44L40.85 5.33C41.01 5.10 41.10 4.90 40.92 4.76C40.68 4.58 40.60 4.98 40.08 4.69C39.90 4.58 39.03 3.98 37.23 3.98C34.58 3.98 33.11 5.00 33.15 6.80C33.25 10.89 39.51 8.86 39.51 11.19C39.51 12.38 38.46 12.66 37.23 12.66C35.18 12.66 34.69 12.00 34.55 11.86C34.23 11.55 34.48 11.31 34.31 11.19C34.13 11.05 33.91 11.26 33.73 11.51L33.10 12.38C32.91 12.63 32.75 12.87 32.96 13.02C33.17 13.17 33.32 12.84 33.75 13.15C33.96 13.30 34.86 14.17 37.23 14.17ZM42.88 14L44.46 14C44.56 14 44.97 14 44.97 13.80C44.97 13.50 44.45 13.54 44.45 12.80L44.45 5.32C44.45 4.58 44.95 4.63 44.95 4.41C44.95 4.16 44.56 4.20 44.46 4.20L42.92 4.20C42.77 4.20 42.49 4.20 42.49 4.41C42.49 4.66 42.90 4.59 42.90 5.32L42.90 12.80C42.90 13.47 42.39 13.51 42.39 13.75C42.39 13.99 42.59 14 42.88 14ZM50.62 14.17C52.81 14.17 54.53 13.30 54.53 11.19C54.53 7.06 48.12 9.09 48.12 6.80C48.12 5.68 49.29 5.45 50.62 5.45C51.90 5.45 52.40 5.82 52.50 5.88C53.17 6.26 52.85 6.61 53.07 6.72C53.30 6.83 53.38 6.68 53.54 6.44L54.25 5.33C54.40 5.10 54.50 4.90 54.32 4.76C54.08 4.58 54.00 4.98 53.48 4.69C53.30 4.58 52.43 3.98 50.62 3.98C47.98 3.98 46.51 5.00 46.55 6.80C46.65 10.89 52.91 8.86 52.91 11.19C52.91 12.38 51.86 12.66 50.62 12.66C48.58 12.66 48.09 12.00 47.95 11.86C47.63 11.55 47.88 11.31 47.71 11.19C47.53 11.05 47.31 11.26 47.12 11.51L46.49 12.38C46.31 12.63 46.14 12.87 46.35 13.02C46.56 13.17 46.72 12.84 47.15 13.15C47.36 13.30 48.26 14.17 50.62 14.17Z"></path></g><!----><!----></svg>